<svg width="122" height="20" viewBox="0 0 122 20" fill="none" xmlns="http://www.w3.org/2000/svg">
<path d="M12.584 6.884C12.3587 6.52 12.038 6.24267 11.622 6.052C11.206 5.844 10.7033 5.74 10.114 5.74C9.00467 5.74 8.14667 6.104 7.54 6.832C6.93333 7.54267 6.63 8.522 6.63 9.77C6.63 11.2087 6.968 12.2833 7.644 12.994C8.32 13.7047 9.36 14.06 10.764 14.06C12.0987 14.06 13.1733 13.5227 13.988 12.448H9.386V8.366H18.772V14.138C17.9747 15.5073 16.874 16.686 15.47 17.674C14.066 18.6447 12.2893 19.13 10.14 19.13C8.23333 19.13 6.56933 18.74 5.148 17.96C3.744 17.1627 2.66067 16.0533 1.898 14.632C1.15267 13.2107 0.78 11.59 0.78 9.77C0.78 7.95 1.15267 6.32933 1.898 4.908C2.66067 3.48667 3.744 2.386 5.148 1.606C6.552 0.808666 8.19867 0.409999 10.088 0.409999C12.4973 0.409999 14.456 0.990666 15.964 2.152C17.4893 3.31333 18.3907 4.89067 18.668 6.884H12.584ZM30.3208 19.182C28.5874 19.182 26.9928 18.7747 25.5368 17.96C24.0981 17.1453 22.9541 16.0187 22.1048 14.58C21.2554 13.1413 20.8308 11.5207 20.8308 9.718C20.8308 7.91533 21.2554 6.29467 22.1048 4.856C22.9541 3.41733 24.0981 2.29933 25.5368 1.502C26.9928 0.687333 28.5874 0.279999 30.3208 0.279999C32.0541 0.279999 33.6401 0.687333 35.0788 1.502C36.5174 2.29933 37.6528 3.41733 38.4848 4.856C39.3341 6.29467 39.7588 7.91533 39.7588 9.718C39.7588 11.5207 39.3341 13.1413 38.4848 14.58C37.6528 16.0187 36.5088 17.1453 35.0528 17.96C33.6141 18.7747 32.0368 19.182 30.3208 19.182ZM30.3208 13.8C31.4648 13.8 32.3488 13.436 32.9728 12.708C33.5968 11.9627 33.9088 10.966 33.9088 9.718C33.9088 8.45267 33.5968 7.456 32.9728 6.728C32.3488 5.98267 31.4648 5.61 30.3208 5.61C29.1594 5.61 28.2668 5.98267 27.6428 6.728C27.0188 7.456 26.7068 8.45267 26.7068 9.718C26.7068 10.966 27.0188 11.9627 27.6428 12.708C28.2668 13.436 29.1594 13.8 30.3208 13.8Z" fill="#5D5FEF"/>
<path d="M45.201 19.208C44.1957 19.208 43.3897 18.9393 42.783 18.402C42.1763 17.8647 41.873 17.1887 41.873 16.374C41.873 15.542 42.1763 14.8573 42.783 14.32C43.3897 13.7653 44.1957 13.488 45.201 13.488C46.189 13.488 46.9863 13.7653 47.593 14.32C48.1997 14.8573 48.503 15.542 48.503 16.374C48.503 17.1887 48.1997 17.8647 47.593 18.402C46.9863 18.9393 46.189 19.208 45.201 19.208ZM63.4678 9.562C64.5771 9.822 65.4351 10.3593 66.0418 11.174C66.6658 11.9713 66.9778 12.8987 66.9778 13.956C66.9778 15.568 66.4404 16.816 65.3658 17.7C64.3084 18.5667 62.7831 19 60.7898 19H51.1438V0.592H60.5298C62.4018 0.592 63.8751 0.999333 64.9498 1.814C66.0244 2.62867 66.5618 3.816 66.5618 5.376C66.5618 6.45067 66.2758 7.36067 65.7038 8.106C65.1491 8.834 64.4038 9.31933 63.4678 9.562ZM56.9158 7.768H59.1518C59.6718 7.768 60.0531 7.664 60.2958 7.456C60.5558 7.248 60.6858 6.92733 60.6858 6.494C60.6858 6.04333 60.5558 5.714 60.2958 5.506C60.0531 5.28067 59.6718 5.168 59.1518 5.168H56.9158V7.768ZM59.5418 14.372C60.0618 14.372 60.4431 14.2767 60.6858 14.086C60.9458 13.878 61.0758 13.5487 61.0758 13.098C61.0758 12.214 60.5644 11.772 59.5418 11.772H56.9158V14.372H59.5418ZM75.1892 14.632H80.7532V19H69.4172V0.592H75.1892V14.632ZM92.0395 19.182C90.3062 19.182 88.7115 18.7747 87.2555 17.96C85.8169 17.1453 84.6729 16.0187 83.8235 14.58C82.9742 13.1413 82.5495 11.5207 82.5495 9.718C82.5495 7.91533 82.9742 6.29467 83.8235 4.856C84.6729 3.41733 85.8169 2.29933 87.2555 1.502C88.7115 0.687333 90.3062 0.279999 92.0395 0.279999C93.7729 0.279999 95.3589 0.687333 96.7975 1.502C98.2362 2.29933 99.3715 3.41733 100.204 4.856C101.053 6.29467 101.478 7.91533 101.478 9.718C101.478 11.5207 101.053 13.1413 100.204 14.58C99.3715 16.0187 98.2275 17.1453 96.7715 17.96C95.3329 18.7747 93.7555 19.182 92.0395 19.182ZM92.0395 13.8C93.1835 13.8 94.0675 13.436 94.6915 12.708C95.3155 11.9627 95.6275 10.966 95.6275 9.718C95.6275 8.45267 95.3155 7.456 94.6915 6.728C94.0675 5.98267 93.1835 5.61 92.0395 5.61C90.8782 5.61 89.9855 5.98267 89.3615 6.728C88.7375 7.456 88.4255 8.45267 88.4255 9.718C88.4255 10.966 88.7375 11.9627 89.3615 12.708C89.9855 13.436 90.8782 13.8 92.0395 13.8ZM115.344 6.884C115.118 6.52 114.798 6.24267 114.382 6.052C113.966 5.844 113.463 5.74 112.874 5.74C111.764 5.74 110.906 6.104 110.3 6.832C109.693 7.54267 109.39 8.522 109.39 9.77C109.39 11.2087 109.728 12.2833 110.404 12.994C111.08 13.7047 112.12 14.06 113.524 14.06C114.858 14.06 115.933 13.5227 116.748 12.448H112.146V8.366H121.532V14.138C120.734 15.5073 119.634 16.686 118.23 17.674C116.826 18.6447 115.049 19.13 112.9 19.13C110.993 19.13 109.329 18.74 107.908 17.96C106.504 17.1627 105.42 16.0533 104.658 14.632C103.912 13.2107 103.54 11.59 103.54 9.77C103.54 7.95 103.912 6.32933 104.658 4.908C105.42 3.48667 106.504 2.386 107.908 1.606C109.312 0.808666 110.958 0.409999 112.848 0.409999C115.257 0.409999 117.216 0.990666 118.724 2.152C120.249 3.31333 121.15 4.89067 121.428 6.884H115.344Z" fill="#414141"/>
</svg>
